{"title":"Age.Of.The.Dragons.2011.720p.BRRip.x264.Feel-Free","uid":6268080,"size":2597065530,"categoryP":"video","categoryS":"hd___movies","magnet":"?xt=urn:btih:d2829961fe3acb172b3f96baba19a634a4077b82&amp;dn=Age.Of.The.Dragons.2011.720p.BRRip.x264.Feel-Free&amp;tr=udp%3A%2F%2Ftracker.openbittorrent.com%3A80&amp;tr=udp%3A%2F%2Fopen.demonii.com%3A1337&amp;tr=udp%3A%2F%2Ftracker.coppersurfer.tk%3A6969&amp;tr=udp%3A%2F%2Fexodus.desync.com%3A6969","seeders":0,"leechers":1,"uploader":"qwersd","files":11,"time":1300927291,"description":"Genre:Action | Fantasy | Sci-Fi\nLanguage:English\nIMDb:http://www.imdb.com/title/tt1594917/\nSource:720p.BluRay.x264-7SinS\n\n\nFormat : MPEG-4\nFormat profile : Base Media\nCodec ID : isom\nFile size : 2.41 GiB\nDuration : 1h 34mn\nOverall bit rate : 3 649 Kbps\n\n\nVideo\nFormat profile : &lt;a class=&quot;__cf_email__&quot; href=&quot;/cdn-cgi/l/email-protection&quot; data-cfemail=&quot;efa7868887afa3dbc1de&quot;&gt;[email&amp;#160;protected]&lt;/a&gt;&lt;script cf-hash='f9e31' type=&quot;text/javascript&quot;&gt;\n/* &lt;![CDATA[ */!function(){try{var t=&quot;currentScript&quot;in document?document.currentScript:function(){for(var t=document.getElementsByTagName(&quot;script&quot;),e=t.length;e--;)if(t[e].getAttribute(&quot;cf-hash&quot;))return t[e]}();if(t&amp;&amp;t.previousSibling){var e,r,n,i,c=t.previousSibling,a=c.getAttribute(&quot;data-cfemail&quot;);if(a){for(e=&quot;&quot;,r=parseInt(a.substr(0,2),16),n=2;a.length-n;n+=2)i=parseInt(a.substr(n,2),16)^r,e+=String.fromCharCode(i);e=document.createTextNode(e),c.parentNode.replaceChild(e,c)}}}catch(u){}}();/* ]]&gt; */&lt;/script&gt;\nFormat settings, CABAC : Yes\nFormat settings, ReFrames : 3 frames\nCodec ID : avc1\nCodec ID/Info : Advanced Video Coding\nDuration : 1h 34mn\nBit rate mode : Variable\nBit rate : 3 222 Kbps\nMaximum bit rate : 22.5 Mbps\nWidth : 1 280 pixels\nHeight : 544 pixels\nDisplay aspect ratio : 2.35:1\nFrame rate mode : Constant\nFrame rate : 23.976 fps\nColor space : YUV\nChroma subsampling : 4:2:0\nBit depth : 8 bits\nScan type : Progressive\nBits/(Pixel*Frame) : 0.193\nStream size : 2.11 GiB (88%)\nWriting library : x264\n\nAudio\nID : 2\nFormat : AAC\nFormat/Info : Advanced Audio Codec\nFormat version : Version 4\nFormat profile : LC\nFormat settings, SBR : No\nCodec ID : 40\nDuration : 1h 34mn\nBit rate mode : Variable\nBit rate : 447 Kbps\nMaximum bit rate : 557 Kbps\nChannel(s) : 6 channels\nChannel positions : Front: L C R, Side: L R, LFE\nSampling rate : 48.0 KHz\nStream size : 302 MiB (12%)\n\n\nPlot:\nHerman Melville's classic novel Moby Dick, is recreated in a world where Captain Ahab and his crew search for a Great White Dragon.\n &lt;a href=&quot;\nhttp://www.pix2links.com/images/79715215591764680584.png&quot; rel=&quot;nofollow&quot; target=&quot;_NEW&quot;&gt;\nhttp://www.pix2links.com/images/79715215591764680584.png&lt;/a&gt; &lt;a href=&quot;\nhttp://www.pix2links.com/images/18997808452565504562.png&quot; rel=&quot;nofollow&quot; target=&quot;_NEW&quot;&gt;\nhttp://www.pix2links.com/images/18997808452565504562.png&lt;/a&gt; &lt;a href=&quot;\nhttp://www.pix2links.com/images/66224832294244432243.png&quot; rel=&quot;nofollow&quot; target=&quot;_NEW&quot;&gt;\nhttp://www.pix2links.com/images/66224832294244432243.png&lt;/a&gt; &lt;a href=&quot;\nhttp://www.pix2links.com/images/66224832294244432243.png&quot; rel=&quot;nofollow&quot; target=&quot;_NEW&quot;&gt;\nhttp://www.pix2links.com/images/66224832294244432243.png&lt;/a&gt; &lt;a href=&quot;\nhttp://www.pix2links.com/images/87507576279265950061.png&quot; rel=&quot;nofollow&quot; target=&quot;_NEW&quot;&gt;\nhttp://www.pix2links.com/images/87507576279265950061.png&lt;/a&gt; &lt;a href=&quot;\nhttp://www.pix2links.com/images/38787102933626055204.png&quot; rel=&quot;nofollow&quot; target=&quot;_NEW&quot;&gt;\nhttp://www.pix2links.com/images/38787102933626055204.png&lt;/a&gt;\n\n\nGreets:\n\nINK,CRYS,IMAGINE,LKRG,FXG,3Li,FLAWL3SS,TA,iLLUSiON,ViSiON,DTRG SAFCuk009,LU,TheFalcon007,MYSTiC,PrisM,Noir,WBZ,LAP,Rx,Kingdom,SAFCuk009+Fabreezy,HDLiTE,TWiZTED,ExtraTorrentRG.ELEKTRI4KA,MAGNAT,CM8\nAnd to all the other p2p grps past and present\n","torrent":{"xt":"urn:btih:d2829961fe3acb172b3f96baba19a634a4077b82","amp;dn":"Age.Of.The.Dragons.2011.720p.BRRip.x264.Feel-Free","amp;tr":["udp%3A%2F%2Ftracker.openbittorrent.com%3A80","udp%3A%2F%2Fopen.demonii.com%3A1337","udp%3A%2F%2Ftracker.coppersurfer.tk%3A6969","udp%3A%2F%2Fexodus.desync.com%3A6969"],"infoHash":"d2829961fe3acb172b3f96baba19a634a4077b82","infoHashBuffer":{"type":"Buffer","data":[210,130,153,97,254,58,203,23,43,63,150,186,186,25,166,52,164,7,123,130]},"announce":[],"urlList":[]}}